<svg width="40" height="40" viewBox="0 0 40 40" fill="none" xmlns="http://www.w3.org/2000/svg">
<path d="M0 20C0 8.95431 8.95431 0 20 0C31.0457 0 40 8.95431 40 20C40 31.0457 31.0457 40 20 40C8.95431 40 0 31.0457 0 20Z" fill="url(#paint0_linear_66_3593)"/>
<path d="M23.3333 27.5V25.8333C23.3333 24.9493 22.9821 24.1014 22.357 23.4763C21.7319 22.8512 20.884 22.5 20 22.5H15C14.1159 22.5 13.2681 22.8512 12.6429 23.4763C12.0178 24.1014 11.6666 24.9493 11.6666 25.8333V27.5" stroke="#F54900" stroke-width="1.66667" stroke-linecap="round" stroke-linejoin="round"/>
<path d="M17.5 19.1667C19.3409 19.1667 20.8333 17.6743 20.8333 15.8333C20.8333 13.9924 19.3409 12.5 17.5 12.5C15.659 12.5 14.1666 13.9924 14.1666 15.8333C14.1666 17.6743 15.659 19.1667 17.5 19.1667Z" stroke="#F54900" stroke-width="1.66667" stroke-linecap="round" stroke-linejoin="round"/>
<path d="M28.3334 27.5V25.8333C28.3328 25.0948 28.087 24.3773 27.6345 23.7936C27.182 23.2099 26.5485 22.793 25.8334 22.6083" stroke="#F54900" stroke-width="1.66667" stroke-linecap="round" stroke-linejoin="round"/>
<path d="M23.3334 12.6083C24.0504 12.7919 24.6859 13.2089 25.1397 13.7936C25.5936 14.3783 25.8399 15.0974 25.8399 15.8375C25.8399 16.5776 25.5936 17.2967 25.1397 17.8814C24.6859 18.4661 24.0504 18.8831 23.3334 19.0667" stroke="#F54900" stroke-width="1.66667" stroke-linecap="round" stroke-linejoin="round"/>
<defs>
<linearGradient id="paint0_linear_66_3593" x1="0" y1="0" x2="40" y2="40" gradientUnits="userSpaceOnUse">
<stop stop-color="#FFEDD4"/>
<stop offset="1" stop-color="#FFF7ED"/>
</linearGradient>
</defs>
</svg>
